name analog
datacolumns 19
datarows 32
range 0.17 0.1855
endheader
time	ground_force_vx	ground_force_vy	ground_force_vz	ground_force_px	ground_force_py	ground_force_pz	l_ground_force_vx	l_ground_force_vy	l_ground_force_vz	l_ground_force_px	l_ground_force_py	l_ground_force_pz	ground_torque_x	ground_torque_y	ground_torque_z	l_ground_torque_x	l_ground_torque_y	l_ground_torque_z
0.17	-0.0	-0.0	-0.0	-11.24477195739746	35.34073638916016	-426.8844909667969	7.087961196899414	-27.057071685791016	-416.38031005859375	-0.0	-0.0	-0.0	-0.0	-0.0	-0.0	106606.796875	-12803.34375	-8895.5185546875
0.1705	-0.0	-0.0	-0.0	-10.625131607055664	35.46794128417969	-426.5470581054688	7.315679550170898	-27.17664337158203	-417.1432495117188	-0.0	-0.0	-0.0	-0.0	-0.0	-0.0	106878.921875	-12615.09765625	-8943.423828125
0.171	-0.0	-0.0	-0.0	-10.491180419921877	35.18124771118164	-426.77581787109375	6.922476291656494	-26.8851375579834	-417.0324096679688	-0.0	-0.0	-0.0	-0.0	-0.0	-0.0	106923.265625	-12534.1796875	-8970.8515625
0.1715	-0.0	-0.0	-0.0	-10.360286712646484	34.76085662841797	-426.1472473144531	6.398919105529785	-26.784852981567383	-417.5135192871094	-0.0	-0.0	-0.0	-0.0	-0.0	-0.0	107198.6875	-12415.8515625	-9067.6689453125
0.17200000000000001	-0.0	-0.0	-0.0	-10.36478328704834	34.36323547363281	-426.9775390625	6.064531326293945	-26.71613311767578	-418.77923583984375	-0.0	-0.0	-0.0	-0.0	-0.0	-0.0	107279.515625	-12172.8486328125	-9083.123046875
0.17250000000000001	-0.0	-0.0	-0.0	-10.428306579589844	33.77790832519531	-425.91156005859375	5.988001823425293	-26.859149932861328	-417.8973693847656	-0.0	-0.0	-0.0	-0.0	-0.0	-0.0	107134.453125	-11805.630859375	-9119.181640625
0.17300000000000001	-0.0	-0.0	-0.0	-9.885990142822266	33.25916290283203	-424.614990234375	6.186585903167725	-27.11763381958008	-419.0163879394531	-0.0	-0.0	-0.0	-0.0	-0.0	-0.0	107080.5234375	-11708.884765625	-9223.4736328125
0.17350000000000002	-0.0	-0.0	-0.0	-9.879110336303713	33.00929260253906	-426.334228515625	6.009324073791504	-27.12621116638184	-418.1930541992188	-0.0	-0.0	-0.0	-0.0	-0.0	-0.0	107028.7265625	-11405.9892578125	-9190.7744140625
0.17400000000000002	-0.0	-0.0	-0.0	-9.193638801574709	32.428077697753906	-425.2991638183594	5.816320896148682	-27.282146453857425	-417.36859130859375	-0.0	-0.0	-0.0	-0.0	-0.0	-0.0	106853.09375	-11131.7412109375	-9161.5546875
0.17450000000000002	-0.0	-0.0	-0.0	-9.166988372802734	31.977710723876957	-425.8663635253906	5.942517280578613	-27.335594177246094	-417.6704711914063	-0.0	-0.0	-0.0	-0.0	-0.0	-0.0	106681.03125	-10817.98828125	-9120.978515625
0.17500000000000002	-0.0	-0.0	-0.0	-9.280739784240724	32.15665435791016	-424.5186767578125	6.061982154846191	-27.2154541015625	-416.8982543945313	-0.0	-0.0	-0.0	-0.0	-0.0	-0.0	106567.171875	-10537.06640625	-9199.5771484375
0.17550000000000002	-0.0	-0.0	-0.0	-9.534110069274902	32.21029281616211	-427.0314025878906	5.788785457611084	-27.500152587890625	-418.8041687011719	-0.0	-0.0	-0.0	-0.0	-0.0	-0.0	106934.609375	-10400.9677734375	-9273.15234375
0.176	-0.0	-0.0	-0.0	-9.285918235778809	31.63605117797852	-423.5580749511719	5.433152675628662	-27.857139587402344	-418.970947265625	-0.0	-0.0	-0.0	-0.0	-0.0	-0.0	107137.515625	-10053.5576171875	-9515.0517578125
0.1765	-0.0	-0.0	-0.0	-8.659634590148926	31.49068832397461	-425.22857666015625	5.189627647399902	-28.07514953613281	-420.3565673828125	-0.0	-0.0	-0.0	-0.0	-0.0	-0.0	107334.609375	-9993.4384765625	-9597.775390625
0.177	-0.0	-0.0	-0.0	-8.742440223693848	31.304473876953125	-424.8216247558594	5.228305816650391	-28.43407440185547	-421.25146484375	-0.0	-0.0	-0.0	-0.0	-0.0	-0.0	107297.15625	-9689.494140625	-9588.6728515625
0.1775	-0.0	-0.0	-0.0	-8.79831600189209	31.21796989440918	-426.2882080078125	4.601906776428223	-29.17945098876953	-421.2073669433594	-0.0	-0.0	-0.0	-0.0	-0.0	-0.0	107342.4609375	-9207.7861328125	-9700.583984375
0.178	-0.0	-0.0	-0.0	-8.46403980255127	31.82252311706543	-424.9862365722656	4.551713943481445	-29.066259384155277	-422.9205322265625	-0.0	-0.0	-0.0	-0.0	-0.0	-0.0	107659.171875	-9256.07421875	-9724.7900390625
0.1785	-0.0	-0.0	-0.0	-8.318614959716797	31.51849365234375	-424.0559997558594	4.612992763519287	-29.48312759399414	-423.1476135253906	-0.0	-0.0	-0.0	-0.0	-0.0	-0.0	107847.6875	-9101.5693359375	-9877.076171875
0.179	-0.0	-0.0	-0.0	-8.290776252746582	31.86626434326172	-424.6868286132813	4.557724952697754	-29.43507575988769	-424.7199096679688	-0.0	-0.0	-0.0	-0.0	-0.0	-0.0	108073.1328125	-8909.3759765625	-9950.9228515625
0.1795	-0.0	-0.0	-0.0	-8.018010139465332	32.010467529296875	-425.0554809570313	4.392276287078857	-30.41714096069336	-425.1389465332031	-0.0	-0.0	-0.0	-0.0	-0.0	-0.0	108511.8359375	-8680.01953125	-10001.384765625
0.18	-0.0	-0.0	-0.0	-8.367842674255371	32.086944580078125	-424.16259765625	4.2312517166137695	-30.208681106567383	-424.4786682128906	-0.0	-0.0	-0.0	-0.0	-0.0	-0.0	108175.40625	-8481.931640625	-10106.1806640625
0.1805	-0.0	-0.0	-0.0	-8.530452728271484	32.013973236083984	-423.419921875	3.642386674880981	-30.39860725402832	-426.2510986328125	-0.0	-0.0	-0.0	-0.0	-0.0	-0.0	108246.59375	-8347.453125	-10257.6083984375
0.181	-0.0	-0.0	-0.0	-8.72567081451416	31.92479705810547	-421.6793823242188	2.9868149757385254	-30.498371124267575	-426.2124633789063	-0.0	-0.0	-0.0	-0.0	-0.0	-0.0	108206.515625	-8135.4892578125	-10384.1865234375
0.1815	-0.0	-0.0	-0.0	-9.42422866821289	32.05488586425781	-421.56982421875	3.11954927444458	-30.85993766784668	-427.6275024414063	-0.0	-0.0	-0.0	-0.0	-0.0	-0.0	108570.109375	-7825.6318359375	-10651.4736328125
0.182	-0.0	-0.0	-0.0	-9.574201583862305	31.358551025390625	-420.2801208496094	2.2606658935546875	-30.951492309570312	-428.6753845214844	-0.0	-0.0	-0.0	-0.0	-0.0	-0.0	108666.2109375	-7669.892578125	-10895.9833984375
0.1825	-0.0	-0.0	-0.0	-10.041357040405272	31.51809883117676	-419.8678283691406	1.6984881162643433	-31.27119445800781	-428.9534301757813	-0.0	-0.0	-0.0	-0.0	-0.0	-0.0	108902.4453125	-7552.822265625	-11130.728515625
0.183	-0.0	-0.0	-0.0	-10.752519607543944	31.524742126464844	-418.4920654296875	1.0698609352111816	-31.46990966796875	-430.1855163574219	-0.0	-0.0	-0.0	-0.0	-0.0	-0.0	109126.8515625	-7444.50732421875	-11313.173828125
0.1835	-0.0	-0.0	-0.0	-10.841863632202148	30.44569396972656	-416.7523193359375	0.7467082142829895	-31.619163513183597	-431.5513916015625	-0.0	-0.0	-0.0	-0.0	-0.0	-0.0	109406.90625	-7140.96142578125	-11283.2919921875
0.184	-0.0	-0.0	-0.0	-11.356185913085938	30.692455291748047	-416.5034790039063	0.2915056645870209	-31.47635269165039	-432.6580810546875	-0.0	-0.0	-0.0	-0.0	-0.0	-0.0	109527.953125	-6963.80810546875	-11565.0556640625
0.1845	-0.0	-0.0	-0.0	-11.363969802856444	30.39675521850586	-415.2039794921875	-0.3650614023208618	-31.55122375488281	-432.598876953125	-0.0	-0.0	-0.0	-0.0	-0.0	-0.0	109675.484375	-6907.73681640625	-11695.8974609375
0.185	-0.0	-0.0	-0.0	-11.513317108154297	30.39950180053711	-414.188720703125	-1.111436367034912	-31.786333084106445	-433.28460693359375	-0.0	-0.0	-0.0	-0.0	-0.0	-0.0	109605.890625	-6870.16162109375	-11896.1064453125
0.1855	-0.0	-0.0	-0.0	-11.765572547912598	29.45385360717773	-412.1205749511719	-1.685504913330078	-31.9925594329834	-432.947998046875	-0.0	-0.0	-0.0	-0.0	-0.0	-0.0	109875.46875	-6776.13818359375	-12049.546875
